<svg xmlns="http://www.w3.org/2000/svg" viewBox="0 0 168 155.88"><defs><style>.cls-1{fill:#59251b;}.cls-1,.cls-2,.cls-3,.cls-4{fill-rule:evenodd;}.cls-2{fill:#fffcf5;}.cls-3{fill:#f1e3d6;}.cls-4{fill:#fff;}</style></defs><g id="Layer_2" data-name="Layer 2"><g id="File_2" data-name="File 2"><g id="Normal"><path class="cls-1" d="M121.13,23.75c26.5,12.33,43.94,33.84,46.62,63.83,1.13,12.72-1.54,25-8.68,35.71C143.28,146.87,111,155.88,84,155.88s-59.28-9-75.07-32.59C1.78,112.63-.88,100.3.25,87.58c2.68-30,20.12-51.5,46.62-63.83A18.23,18.23,0,0,1,65.09,6.21a18,18,0,0,1,4.69.61,18.23,18.23,0,0,1,28.44,0,18,18,0,0,1,4.69-.61A18.23,18.23,0,0,1,121.13,23.75Z"/><path class="cls-2" d="M116.09,23.7A13.21,13.21,0,0,0,96.16,13.09c-2.27,1.22-5.7,5.57-6.82,8.66a19.58,19.58,0,0,1,5.09-11.61,13.21,13.21,0,0,0-22.6,2.95c-1.06,2.35-1.14,7.89-.15,11a19.56,19.56,0,0,1-3-12.39A13.22,13.22,0,0,0,51.88,24.44a12.54,12.54,0,0,0,.24,2.47h0c.61,2.51,4,6.91,6.69,8.77a19.38,19.38,0,0,1-9.7-7.43C24,39.89,7.77,60,5.26,88c-7.47,83.77,165,83.77,157.48,0-2.61-29.17-20.05-49.71-46.86-61.12-2.17-1.38-7.65-2.23-10.9-1.7A19.07,19.07,0,0,1,116.09,23.7Z"/><path class="cls-3" d="M58.81,35.68a19.38,19.38,0,0,1-9.7-7.43c-.91.42-1.81.86-2.69,1.3C49.34,33,53.64,35.05,58.81,35.68Z"/><path class="cls-3" d="M71.41,23.09c.08.37.17.71.27,1l-.27-1Zm.27,1c-3.45-3.9-5.33-8.27-5.21-12.81a13.36,13.36,0,0,1,2.2.42A19.56,19.56,0,0,0,71.68,24.12Z"/><path class="cls-3" d="M89.46,21.44a2.45,2.45,0,0,0-.12.31l.12-.31Zm-.12.31c-.54-5.21.5-9.89,3.28-13.52a13.11,13.11,0,0,1,1.81,1.91A19.58,19.58,0,0,0,89.34,21.75Z"/><path class="cls-3" d="M116.09,23.7a12.74,12.74,0,0,0-.49-2.91A19.64,19.64,0,0,0,105,25.21,19.07,19.07,0,0,1,116.09,23.7Z"/><path class="cls-1" d="M84,99.9a12.8,12.8,0,0,1,2.22,0c.56.12.9.42.89.76s-.36.64-.92,1a5.8,5.8,0,0,1-2.23.72,5.7,5.7,0,0,1-2.21-.72c-.56-.31-.92-.62-.92-1s.37-.64,1-.76A13.88,13.88,0,0,1,84,99.9Z"/><path class="cls-1" d="M74.28,119.87c3.09-.38,6.37-2,9.72-4.06,3.35,2.08,6.63,3.68,9.72,4.06,6.06.75,8.52-2.25,9.81-3.34-1.38,2.88-5.9,4.81-9.37,4.67s-7.5-1.88-10.16-3.46c-2.66,1.58-6.83,3.32-10.16,3.46s-8-1.79-9.37-4.67C65.76,117.62,68.22,120.62,74.28,119.87Z"/><path class="cls-1" d="M76.73,53.45c9.41-4,9.49-16.32,5.29-21.42C82.59,41.61,80.66,48.57,76.73,53.45Z"/><path class="cls-1" d="M86.54,35C88.79,43.93,93,46.43,98.2,45.5,89.3,39.37,89.31,37.92,86.54,35Z"/><path class="cls-1" d="M78.05,34.92c.67,5.5-4.89,11.78-9.25,11.21C72.51,44.09,75.42,39.46,78.05,34.92Z"/><path class="cls-1" d="M50.8,81.85A10.43,10.43,0,1,1,40.37,92.28,10.43,10.43,0,0,1,50.8,81.85Z"/><path class="cls-4" d="M53.83,83.73a4.8,4.8,0,1,1-4.8,4.8A4.8,4.8,0,0,1,53.83,83.73Z"/><path class="cls-3" d="M14.88,122.93C50.3,169.45,169,157.83,162.74,88a70.06,70.06,0,0,0-10.29-31.46c9.64,55.07-14.73,90.24-79.26,86.43C53.53,141.84,32.46,134.41,14.88,122.93Z"/><path class="cls-1" d="M117.2,81.85a10.43,10.43,0,1,0,10.43,10.43A10.43,10.43,0,0,0,117.2,81.85Z"/><path class="cls-4" d="M114.17,83.73a4.8,4.8,0,1,0,4.8,4.8A4.8,4.8,0,0,0,114.17,83.73Z"/></g></g></g></svg>