<svg xmlns="http://www.w3.org/2000/svg" viewBox="0 0 168 158.28"><defs><style>.cls-1{fill:#59251b;}.cls-1,.cls-2,.cls-3,.cls-4{fill-rule:evenodd;}.cls-2{fill:#fffcf5;}.cls-3{fill:#f1e3d6;}.cls-4{fill:#fff;}</style></defs><g id="Layer_2" data-name="Layer 2"><g id="File_2" data-name="File 2"><g id="Facing_Left" data-name="Facing Left"><path class="cls-1" d="M119.31,24.18C146.26,36.65,166.86,58.46,168,89.73a57.17,57.17,0,0,1-9.78,34.74c-15.43,22.64-45.29,32.67-71.6,33.71a111.92,111.92,0,0,1-42-6.09C32,147.55,20.18,140.22,11.85,129.54,2.9,118.05-.71,104.44.11,90c1.72-30.26,18.14-52.58,44.65-65.5A18,18,0,0,1,67.3,7,17.84,17.84,0,0,1,81.44,0,18.82,18.82,0,0,1,95.89,6.93a17.75,17.75,0,0,1,4.66-.62A19,19,0,0,1,119.31,24.18Z"/><path class="cls-2" d="M114.14,24.19a13.81,13.81,0,0,0-13.58-12.72,12.59,12.59,0,0,0-6.69,1.91h0c-2.23,1.25-5.53,5.72-6.56,8.88A19.75,19.75,0,0,1,92,10.36a13.5,13.5,0,0,0-10.59-5.2,12.78,12.78,0,0,0-11.92,8.28c-1,2.4-.89,8.08.19,11.29a20.9,20.9,0,0,1-3.4-12.68,13.35,13.35,0,0,0-3.59-.49,12.92,12.92,0,0,0-12.8,13.55,13.06,13.06,0,0,0,.31,2.52h0c.69,2.57,4.2,7.07,7,9A20.25,20.25,0,0,1,47.27,29C22.52,41,6.9,61.56,5.27,90.29.4,176,165.69,172.18,162.8,89.91c-1.05-30-21.6-50.82-48.77-62.43-2.22-1.41-7.73-2.27-11-1.72A18.54,18.54,0,0,1,114.14,24.19Z"/><path class="cls-3" d="M57.21,36.59A20.25,20.25,0,0,1,47.27,29c-.9.44-1.78.88-2.65,1.34C47.65,33.89,52,36,57.21,36.59Z"/><path class="cls-3" d="M69.42,23.68q.14.55.3,1.05l-.3-1.05Zm.3,1.05c-3.58-4-5.59-8.46-5.61-13.1a13.28,13.28,0,0,1,2.21.42A20.9,20.9,0,0,0,69.72,24.73Z"/><path class="cls-3" d="M87.42,22c0,.1-.08.21-.11.31l.11-.31Zm-.11.31c-.7-5.33.19-10.12,2.86-13.84A13.74,13.74,0,0,1,92,10.36,19.75,19.75,0,0,0,87.31,22.26Z"/><path class="cls-3" d="M114.14,24.19a14.69,14.69,0,0,0-.58-3,18.88,18.88,0,0,0-10.49,4.55A18.54,18.54,0,0,1,114.14,24.19Z"/><path class="cls-3" d="M19.45,130.41c39.23,41.09,145.67,25.67,143.35-40.5-.74-21-11.05-37.56-26.51-49.55,35.21,62.87-3.34,113.31-74,106.29C48.48,145.27,33.47,138.75,19.45,130.41Z"/><path class="cls-1" d="M57.37,61.09c8.46-3.09,10-15.61,7.08-21.21C63.77,49.65,61.29,56.53,57.37,61.09Z"/><path class="cls-1" d="M71,43.82c.83,9.3,4.08,12.26,8.63,11.84C72.79,48.54,73,47.06,71,43.82Z"/><path class="cls-1" d="M62,42.66c-.1,5.65-5.58,11.46-9.21,10.45C56.18,51.41,59.21,47,62,42.66Z"/><path class="cls-1" d="M47.75,121.31c2.06,2.48,6.72,2.79,10.13,0,4.64,5,13.16,5.2,20.72,3.26C71.81,127.2,63.72,128,57.72,123,54.5,124.61,49.69,125.1,47.75,121.31Z"/><path class="cls-1" d="M42.39,89.64a10,10,0,0,1,5.73,12.55,9.14,9.14,0,0,1-12,5.66A10,10,0,0,1,30.39,95.3,9.14,9.14,0,0,1,42.39,89.64Z"/><path class="cls-4" d="M43.47,91.32a4.31,4.31,0,0,1,2.58,5.15,3.55,3.55,0,0,1-4.81,2.23,4.3,4.3,0,0,1-2.58-5.14A3.55,3.55,0,0,1,43.47,91.32Z"/><path class="cls-1" d="M58.11,111.61a10.4,10.4,0,0,1,1.75.12c.44.14.69.4.66.66s-.33.48-.79.69a4.54,4.54,0,0,1-1.8.43,4.5,4.5,0,0,1-1.7-.71c-.42-.29-.69-.55-.67-.81s.34-.48.8-.54A11.51,11.51,0,0,1,58.11,111.61Z"/><path class="cls-1" d="M96.2,89.08a10.51,10.51,0,0,0-9.07,12.18,11.32,11.32,0,0,0,12.51,9.43,10.51,10.51,0,0,0,9.07-12.18A11.32,11.32,0,0,0,96.2,89.08Z"/><path class="cls-4" d="M93.41,91.44a4.69,4.69,0,0,0-3.81,5.2,4.28,4.28,0,0,0,4.86,3.86,4.68,4.68,0,0,0,3.82-5.19A4.3,4.3,0,0,0,93.41,91.44Z"/></g></g></g></svg>